<?xml version="1.0" encoding="UTF-8" standalone="no"?>
<svg
   xmlns:ns0="http://ns.adobe.com/SaveForWeb/1.0/"
   xmlns:ns="http://ns.adobe.com/Variables/1.0/"
   xmlns:i="http://ns.adobe.com/AdobeIllustrator/10.0/"
   xmlns:dc="http://purl.org/dc/elements/1.1/"
   xmlns:cc="http://creativecommons.org/ns#"
   xmlns:rdf="http://www.w3.org/1999/02/22-rdf-syntax-ns#"
   xmlns:svg="http://www.w3.org/2000/svg"
   xmlns="http://www.w3.org/2000/svg"
   xmlns:sodipodi="http://sodipodi.sourceforge.net/DTD/sodipodi-0.dtd"
   xmlns:inkscape="http://www.inkscape.org/namespaces/inkscape"
   i:viewOrigin="251 467"
   i:rulerOrigin="0 0"
   i:pageBounds="0 792 612 0"
   width="100.5"
   height="100.5"
   viewBox="0 0 100.5 100.5"
   overflow="visible"
   enable-background="new 0 0 108.758 144.133"
   xml:space="preserve"
   version="1.1"
   id="svg45"
   sodipodi:docname="arrow.svg"
   inkscape:version="1.0.2 (e86c870879, 2021-01-15)"
   inkscape:export-filename="/tmp/logo.png"
   inkscape:export-xdpi="61.134327"
   inkscape:export-ydpi="61.134327"><defs
   id="defs49">
		
	
			
			
			
			
			
			
			
			
			
			
			
			
			
			
			
			
			
			
			
		</defs><sodipodi:namedview
   pagecolor="#ffffff"
   bordercolor="#666666"
   borderopacity="1"
   objecttolerance="10"
   gridtolerance="10"
   guidetolerance="10"
   inkscape:pageopacity="0"
   inkscape:pageshadow="2"
   inkscape:window-width="1680"
   inkscape:window-height="1050"
   id="namedview47"
   showgrid="false"
   inkscape:zoom="3.6549199"
   inkscape:cx="53.722168"
   inkscape:cy="16.712971"
   inkscape:window-x="0"
   inkscape:window-y="0"
   inkscape:window-maximized="1"
   inkscape:current-layer="svg45"
   inkscape:document-rotation="0" />
	<metadata
   id="metadata2">
		<ns:variableSets>
			<ns:variableSet
   varSetName="binding1"
   locked="none">
				<ns:variables />
				<ns:sampleDataSets />
			</ns:variableSet>
		</ns:variableSets>
		<ns0:sfw>
			<ns0:slices />
			<ns0:sliceSourceBounds
   y="322.867"
   x="251"
   width="108.758"
   height="144.133"
   bottomLeftOrigin="true" />
		</ns0:sfw>
	<rdf:RDF><cc:Work
     rdf:about=""><dc:format>image/svg+xml</dc:format><dc:type
       rdf:resource="http://purl.org/dc/dcmitype/StillImage" /><dc:title /></cc:Work></rdf:RDF></metadata>
	
<rect
   style="fill:#eaffff;fill-opacity:1;stroke:#000000;stroke-width:0.5;stroke-linejoin:round;stroke-miterlimit:4;stroke-dasharray:none"
   id="rect833"
   width="100"
   height="100"
   x="0.25"
   y="0.25"
   ry="3.8184299" /><g
   id="g956"
   transform="translate(22.841871,4.6531506)"><path
     i:knockout="Off"
     fill="#a80030"
     d="m 55.956398,15.820782 c -0.09123,-0.221376 1.132446,0.02944 2.051648,0.391974 -2.601813,-1.061974 -2.033698,-1.794688 -4.723744,-2.581155 0.81625,-0.07627 1.589754,0.005 2.409874,0.0127 -2.040539,-1.006326 -5.365694,-1.541686 -3.986187,-1.99531 C 47.670417,11.248043 40.804608,10.00014 35.880398,11.176055 l 0.284075,-0.731392 c -2.476457,0.924655 -9.415878,1.608489 -11.114927,3.670316 l -0.445448,-0.133456 c -1.502679,0.858881 -2.836081,2.042435 -4.20241,3.027544 -1.972939,1.133879 -1.840728,-0.180556 -1.851045,0.168233 -4.244009,2.86445 -7.135813,5.655824 -9.5489939,7.923632 0.087681,1.241934 -3.0756034,5.420219 -4.9113473,9.161268 -11.1739847,17.27682 -7.5575502,42.309825 4.9237068,54.738946 1.7211944,2.011219 4.9544374,3.820691 7.6479554,5.460144 -2.70104,-2.767671 -3.366305,-2.570634 -5.887035,-5.464501 C 9.1167652,86.631184 9.3167686,85.127453 8.5054054,82.813572 l -0.00565,1.488047 C 5.9847288,81.385672 7.4550544,81.874066 5.3534926,79.597275 L 6.5397402,79.098931 C 5.5622782,78.437117 4.8158247,75.832108 4.8767564,74.656614 L 3.7329835,74.062199 c -0.3973666,-2.421787 -0.43095,-4.026662 0.1511327,-4.922983 l -0.729197,0.438055 C 3.1470812,68.641183 1.7624847,60.539264 3.3811567,63.165601 3.1714741,62.518449 2.7338343,61.935737 2.7583281,60.430816 L 3.5487223,60.157834 C 3.2505525,58.0564 3.3635923,55.646248 3.7915917,55.066138 3.9299791,56.225326 4.2612657,56.61718 4.596517,56.994024 5.7870734,48.272547 1.8006557,54.880416 3.5356687,46.81877 l 0.4775989,0.224364 c -0.046973,-0.730427 0.065325,-1.425178 0.1057975,-2.149429 L 5.4518953,43.023494 C 4.7523005,39.473327 10.651624,32.582848 13.371887,28.510866 c 1.188902,-1.608084 3.750433,-2.580888 6.544166,-4.80527 l -0.631488,-0.519522 c 2.671997,-1.569568 12.998626,-5.012919 15.713591,-2.983507 2.429187,-0.968921 -0.27739,-0.167614 -0.29952,-0.772153 4.944227,-1.440859 5.382133,0.06095 7.810045,0.679302 3.026557,-0.05086 -2.240361,-0.583801 -0.577178,-1.007862 4.480121,1.235201 4.066403,-0.688086 9.455543,1.717987 0.363848,0.613122 2.07348,-0.71602 1.398772,-0.575043"
     id="path14"
     sodipodi:nodetypes="cccccccccccccccccccccccccccccccccccccccccc" /><path
     i:knockout="Off"
     fill="#a80030"
     d="M 59.079244,19.488507 C 56.125235,6.77307 42.295589,-2.791063 30.277147,-2.759986 c -1.800868,-0.128475 -4.233334,0.509518 -6.323501,0.982028 2.638499,0.02807 2.864116,-0.357511 5.476607,-0.192414 1.94158,0.314967 2.57116,1.076119 4.079496,1.746759 l -0.715685,-0.66723 c 2.620401,0.177511 1.675715,0.617042 3.788188,0.694002 l -0.331325,0.753215 c 0.790795,-0.141602 2.408398,0.68812 2.946552,1.240443 l 0.838437,-0.246099 c 1.360829,0.90402 2.151865,1.605869 2.303972,2.266608 l 0.140071,-0.521848 c 0.455709,0.414645 5.03493,3.414271 2.98651,2.965176 0.413543,0.195278 0.905879,0.259806 1.620652,0.942984 l -0.249276,0.475483 c 1.158339,0.8053 2.267472,1.932434 2.3412,2.383006 C 48.552663,9.60624 48.20375,9.579393 47.860173,9.561024 c 3.636767,4.428269 2.368431,-0.306496 5.424129,4.070577 l -0.338589,0.113414 c 0.375299,0.305258 0.656585,0.665824 0.986746,1.007434 l 0.260349,1.431573"
     id="path14-8"
     sodipodi:nodetypes="ccccccccccccccccccccc"
     style="stroke-width:0.65675" /><path
     i:knockout="Off"
     fill="#a80030"
     d="M 57.520577,15.076338 C 54.566568,27.791781 40.736922,37.355911 28.71848,37.324831 c -1.800868,0.12848 -4.233334,-0.50951 -6.323501,-0.98202 2.638499,-0.0281 2.864116,0.35751 5.476607,0.19241 1.94158,-0.31496 2.57116,-1.07612 4.079496,-1.74676 l -0.715685,0.66723 c 2.620401,-0.17751 1.675715,-0.61704 3.788188,-0.694 l -0.331325,-0.75321 c 0.790795,0.1416 2.408398,-0.68812 2.946552,-1.24045 l 0.838437,0.2461 c 1.360829,-0.90402 2.151865,-1.60587 2.303972,-2.26661 l 0.140071,0.52185 c 0.455709,-0.41464 5.03493,-3.41427 2.98651,-2.96517 0.413543,-0.19528 0.905879,-0.25981 1.620652,-0.94299 l -0.249276,-0.47548 c 1.158339,-0.8053 2.267472,-1.93243 2.3412,-2.38301 -0.626382,0.45589 -0.975295,0.48274 -1.318872,0.50111 3.636767,-4.42827 2.368431,0.30649 5.424129,-4.07058 l -0.338589,-0.11341 c 0.375299,-0.30526 0.656585,-0.66583 0.986746,-1.00744 l 0.260349,-1.43157"
     id="path14-8-4"
     sodipodi:nodetypes="ccccccccccccccccccccc"
     style="stroke-width:0.65675" /></g></svg>
